<?xml version="1.0" encoding="utf-8"?>
<!-- Generator: Adobe Illustrator 27.5.0, SVG Export Plug-In . SVG Version: 6.00 Build 0)  -->
<svg version="1.1" xmlns="http://www.w3.org/2000/svg" xmlns:xlink="http://www.w3.org/1999/xlink" x="0px" y="0px"
	 viewBox="0 0 1122 1122" style="enable-background:new 0 0 1122 1122;" xml:space="preserve">
<g id="BG">
	<rect style="fill:#46C9D3;" width="1122" height="1122"/>
</g>
<g id="Alphabet_1_">
	<g>
		<linearGradient id="SVGID_1_" gradientUnits="userSpaceOnUse" x1="461.3763" y1="402.1286" x2="825.5291" y2="402.1286">
			<stop  offset="0" style="stop-color:#91C5C8"/>
			<stop  offset="1" style="stop-color:#787FAF"/>
		</linearGradient>
		<path style="fill:url(#SVGID_1_);" d="M743.594,324.168c-8.168-3.073-16.535-5.738-25.091-8.012l-81.592,69.362
			c-12.95-9.56-27.776-17.153-44.505-22.784c-16.731-5.618-34.943-8.438-54.629-8.438c-18.01,0-34.292,6.196-48.841,18.564
			c-14.563,12.382-23.426,27.57-26.599,45.568c-2.581,14.636,0.039,28.414,7.858,41.349c8.102,11.26,19.432,18.564,33.986,21.94
			c13.13,3.048,26.89,5.173,41.27,6.384c4.38-13.376,12.337-24.988,23.904-34.821c14.549-12.368,30.831-18.564,48.841-18.564
			c19.686,0,37.898,2.82,54.629,8.438c16.729,5.63,31.555,13.224,44.505,22.784l108.199-91.98
			C802.295,352.583,774.974,335.983,743.594,324.168z"/>
		<path style="fill:#FFFFFF;" d="M448.127,603.924c-19.929-5.051-37.707-13.476-53.347-25.276
			c-15.643-11.789-28.646-25.831-38.984-42.127c-10.353-16.284-17.407-34.533-21.145-54.759c-3.753-20.214-3.642-41.56,0.319-64.029
			c4.655-26.396,14.097-51.238,28.334-74.549c14.237-23.311,31.461-43.669,51.699-61.087c20.223-17.406,42.902-31.171,68.036-41.284
			c25.12-10.1,50.906-15.163,77.355-15.163c37.13,0,71.386,5.907,102.78,17.72c31.381,11.815,58.702,28.415,81.935,49.789
			l-108.199,91.98c-12.949-9.56-27.776-17.154-44.505-22.784c-16.731-5.617-34.943-8.438-54.629-8.438
			c-18.011,0-34.292,6.196-48.841,18.564c-14.563,12.382-23.426,27.57-26.599,45.568c-2.581,14.637,0.039,28.415,7.859,41.35
			c8.102,11.26,19.432,18.564,33.986,21.94c14.541,3.375,29.847,5.631,45.921,6.751c25.603,1.135,48.923,6.475,69.955,16.033
			c21.018,9.573,38.251,22.363,51.694,38.396c13.444,16.034,22.965,35.166,28.594,57.383c5.614,22.23,6.047,46.835,1.286,73.839
			c-4.664,26.449-14.115,51.342-28.331,74.681c-14.217,23.351-31.408,43.604-51.548,60.757
			c-20.155,17.168-42.772,30.802-67.856,40.928c-25.084,10.126-50.817,15.189-77.201,15.189c-43.234,0-82.262-7.925-117.084-23.786
			c-34.824-15.849-64.099-37.657-87.83-65.412l106.258-90.543c14.553,16.324,32.151,28.981,52.797,37.974
			c20.629,9.005,43.609,13.502,68.925,13.502c17.431,0,33.432-6.171,47.991-18.526c14.547-12.354,23.417-27.517,26.589-45.503
			c1.683-9.545,1.336-18.801-1.007-27.794c-2.356-8.993-7.593-16.007-15.693-21.069c-7.094-4.484-15.24-7.714-24.453-9.679
			c-9.226-1.964-18.813-3.375-28.791-4.22c-9.978-0.843-19.955-1.687-29.933-2.531C464.486,606.864,455.7,605.612,448.127,603.924z"
			/>
		
			<linearGradient id="SVGID_00000039826667796579661180000002433864313821140367_" gradientUnits="userSpaceOnUse" x1="636.9111" y1="379.7376" x2="825.529" y2="379.7376">
			<stop  offset="0" style="stop-color:#8AC8FA"/>
			<stop  offset="0.9949" style="stop-color:#D96569"/>
		</linearGradient>
		<polygon style="fill:url(#SVGID_00000039826667796579661180000002433864313821140367_);" points="636.911,385.518 717.33,465.937 
			825.529,373.957 745.11,293.538 		"/>
		<g>
			
				<linearGradient id="SVGID_00000181068094874748274070000013647093390298868920_" gradientUnits="userSpaceOnUse" x1="305.7865" y1="744.5988" x2="785.6312" y2="744.5988">
				<stop  offset="0" style="stop-color:#8AC8FA"/>
				<stop  offset="0.9949" style="stop-color:#D96569"/>
			</linearGradient>
			<path style="fill:url(#SVGID_00000181068094874748274070000013647093390298868920_);" d="M781.342,682.522
				c-5.468-22.257-14.851-41.457-28.179-57.588c-3.495-4.23-7.26-8.233-11.279-12.021l0.005-0.004l-70.137-70.012
				c13.444,16.034,22.965,35.165,28.594,57.383c5.614,22.231,6.047,46.835,1.286,73.839c-4.664,26.448-14.116,51.343-28.331,74.682
				c-14.218,23.351-31.408,43.603-51.548,60.757c-20.155,17.168-42.772,30.802-67.856,40.928
				c-25.084,10.126-50.817,15.189-77.201,15.189c-43.234,0-82.262-7.925-117.084-23.786c-19.722-8.976-37.661-19.867-53.825-32.664
				l45.729,46.395c23.53,27.925,52.648,49.945,87.356,66.045c34.706,16.113,73.676,24.319,116.909,24.631
				c26.384,0.191,52.153-4.686,77.309-14.631c25.157-9.945,47.872-23.415,68.149-40.437c20.264-17.008,37.601-37.136,51.986-60.383
				c14.384-23.236,24.015-48.061,28.87-74.475C787.051,729.4,786.795,704.793,781.342,682.522z"/>
			
				<linearGradient id="SVGID_00000010277814623290905410000003206896476025802427_" gradientUnits="userSpaceOnUse" x1="271.6797" y1="775.0914" x2="274.0896" y2="775.0914">
				<stop  offset="0" style="stop-color:#8AC8FA"/>
				<stop  offset="0.9949" style="stop-color:#D96569"/>
			</linearGradient>
			<polygon style="fill:url(#SVGID_00000010277814623290905410000003206896476025802427_);" points="274.09,774.507 271.68,774.621 
				272.719,775.675 			"/>
		</g>
		
			<linearGradient id="SVGID_00000147220472787362374640000016611913047470250148_" gradientUnits="userSpaceOnUse" x1="382.8059" y1="629.5339" x2="575.3891" y2="629.5339">
			<stop  offset="0" style="stop-color:#91C5C8"/>
			<stop  offset="1" style="stop-color:#9BBCE3"/>
		</linearGradient>
		<path style="fill:url(#SVGID_00000147220472787362374640000016611913047470250148_);" d="M573.333,645.585
			c-2.357-8.993-7.593-16.007-15.693-21.069c-7.094-4.484-15.24-7.714-24.453-9.679c-9.226-1.964-18.813-3.375-28.791-4.22
			c-9.978-0.843-19.955-1.687-29.933-2.531c-9.978-0.844-18.763-2.097-26.337-3.784c-19.929-5.051-37.707-13.476-53.347-25.276
			c-4.18-3.15-8.156-6.473-11.958-9.945l-0.015,0.003l76.668,75.56c0.087,0.087,0.175,0.172,0.262,0.259l0.706,0.695l0.018-0.003
			c4.833,4.763,9.98,9.262,15.477,13.468c15.555,11.913,33.272,20.466,53.163,25.66c7.561,1.742,16.337,3.058,26.308,3.974
			c4.679,0.43,9.357,0.859,14.036,1.289c2.227-5.24,3.866-10.773,4.895-16.607C576.023,663.834,575.676,654.578,573.333,645.585z"/>
	</g>
</g>
</svg>
